<?xml version="1.0" encoding="utf-8"?>
<!-- Generator: Adobe Illustrator 22.1.0, SVG Export Plug-In . SVG Version: 6.00 Build 0)  -->
<svg version="1.1" id="Layer_1" xmlns="http://www.w3.org/2000/svg" xmlns:xlink="http://www.w3.org/1999/xlink" x="0px" y="0px"
	 viewBox="0 0 894.9 81.6" style="enable-background:new 0 0 894.9 81.6;" xml:space="preserve">
<style type="text/css">
	.st0{fill:#4F2683;}
	.st1{fill:#FFFFFF;}
	.st2{fill:#807F83;}
</style>
<g>
	<path class="st0" d="M180.3,24.6c-0.9,1-2.2,1.6-3.7,1.6c-3.4,0-5.5-1.4-10.6-1.4c-8.8,0-15.7,4.8-15.7,13.5
		c0,17.8,27.3,14,27.3,26.8c0,5.8-4.2,8.6-9.5,8.6c-9.8,0-15.5-6.4-17.7-15.7h-2.4l3.3,17.9c1.1-1.2,2.5-1.7,3.8-1.7
		c2.8,0,6.4,2.2,12.8,2.2c10.2,0,17.9-5.7,17.9-15.4c0-19.3-27.8-14.2-27.8-26.7c0-4,2.8-6.9,7.9-6.9c8.1,0,12.6,5.7,14.6,12.5h2.4
		L180.3,24.6z M318.8,72.7v2.5h26.7v-2.5h-7.9v-26c0-9.3,4.8-18.3,13.8-18.3c5.1,0,8.2,2.9,8.2,10.4v33.9h-7.9v2.5h26v-2.5h-7.9
		V39.1c0-10-4.9-14.3-14.7-14.3c-8.2,0-14.2,4-17.3,10.8h-0.2v-11c-1.3,1.1-3.2,2.4-7.6,2.4c-2.9,0-10.6,0-10.6,0v2.5h8v43.2H318.8z
		 M221.3,66.7c-1.3,2.9-3.4,5.8-7.1,5.8c-3.8,0-5.4-2.4-5.4-8.3V29.5h12.3V27h-12.3V10.5h-2.1c-1.4,10.7-6.7,16.1-16.4,17.1v2l0,0h0
		h8.1v34.2c0,6.4,1.2,12.5,11.7,12.5c6.6,0,10.5-3,12.6-7l0.8-1.6L221.3,66.7z M316.2,31.8c0-4-2.9-7-8.4-7
		c-8.1,0-12.2,7.3-14.3,13.1h-0.1V24.4c-1.6,1.3-3.3,2.6-7.6,2.6c-3.1,0-11.2,0-11.2,0v2.5h8.6v43.2h-8.6v2.5h27.1v-2.5h-8.3V51.4
		c0-11.3,5.6-23.7,12.7-23.7c0.5,0,0.9,0.1,1.2,0.2c-1.2,1-2,2.5-2,4.2c0,3.1,2.4,5.4,5.4,5.4C313.9,37.5,316.2,34.8,316.2,31.8z
		 M139,61.4c-2.8,6.6-7.5,11.9-16.2,11.9c-12.9,0-14.8-9.8-14.8-24.9v-0.8h33.2c0-13.4-7.4-22.6-21.3-22.6
		c-15.1,0-23.3,11.7-23.3,25.7c0,14.7,7.7,25.7,23.2,25.7c9.6,0,17.4-3.6,21.5-14.3L139,61.4z M108.1,42.3
		c0.5-7.5,3.3-14.7,11.1-14.7c8.4,0,10.2,6.5,10.4,13.5c0,0.6,0,2.9,0,3.5H108C108,43.8,108,43,108.1,42.3z M268.4,61.4
		c-2.8,6.6-7.5,11.9-16.2,11.9c-12.9,0-14.8-9.8-14.8-24.9v-0.8h33.2c0-13.4-7.4-22.6-21.3-22.6C234.2,25,226,36.7,226,50.7
		c0,14.7,7.7,25.7,23.2,25.7c9.6,0,17.4-3.6,21.5-14.3L268.4,61.4z M237.5,42.3c0.5-7.5,3.3-14.7,11.1-14.7
		c8.4,0,10.2,6.5,10.4,13.5c0,0.6,0,2.9,0,3.5h-21.6C237.4,43.8,237.4,43,237.5,42.3z M53.2,24.4c-4.4,12.7-18.1,52-18.1,52h-2
		l-22.4-61L7,5.6H0V3.2h28.7v2.5h-9l2.8,8.2L38.1,57h0.2l13-37.5L46.2,5.6h-8.7V3.2h31.3v2.5H58.7l2.8,8L77.3,57h0.2l14.1-43.2
		L94,5.6h-9V3.2h20.3v2.5h-7.3l-3.2,9L74.7,76.3h-2.2L53.2,24.4z"/>
	<g>
		<path class="st1" d="M456.8,33.7l0-29.3C449.2,1.7,437.3,0,423.8,0c-13.2,0-24.9,1.7-32.5,4.4l0,29.7c0,4.4-0.2,12.1,3.8,21.4
			c5,11.5,14.5,20.2,28.2,25.7l0.7,0.3l0.7-0.3c13.7-5.4,23.3-14.1,28.2-25.7C457,46.3,456.8,37.9,456.8,33.7z"/>
		<path class="st0" d="M456.8,33.7l0-29.3C449.2,1.7,437.3,0,423.8,0c-13.2,0-24.9,1.7-32.5,4.4l0,29.7c0,4.4-0.2,12.1,3.8,21.4
			c5,11.5,14.5,20.2,28.2,25.7l0.7,0.3l0.7-0.3c13.7-5.4,23.3-14.1,28.2-25.7C457,46.3,456.8,37.9,456.8,33.7z M431.2,65.8
			c-0.1,0-0.3,0.1-0.5,0.2c-0.1,0-0.1,0.1-0.2,0.1c0,0.1,0,0.1,0.1,0.2c-0.1,0.3-0.8,0.3-1.1,0.4c-0.2,0.1-0.5,0.3-0.6,0.5
			c-0.1,0.2-0.1,0.1-0.3,0.2c-0.4,0.1-0.3,0.4-0.2,0.7c0.1,0.3,0.3,0.5,0.6,0.7c0.1,0.1,0.5,0.2,0.7,0.2c-0.2,0.2-0.5,0.2-0.8,0.3
			c-0.2,0.1-0.3,0.2-0.5,0.2c-0.2,0-0.4,0-0.5,0c-0.3-0.1-0.5,0-0.8,0c-0.2,0-0.3,0-0.5-0.1c-0.1,0-0.2-0.1-0.3-0.2
			c-0.2,0,0,0.3,0,0.4c-0.3,0.3-1-0.1-1.3-0.3c-0.2-0.1-0.4-0.5-0.7-0.6c0,0.3,0,0.6,0,0.9c0,0.9,0.1,1.8,0.1,2.7c0,0.5,0,1.1,0,1.6
			h-1l0.1-5.3c-0.3,0-0.4,0.3-0.7,0.4c-0.2,0.1-0.3,0-0.5,0.1c-0.2,0.1-0.2,0.2-0.4,0.3c-0.2,0.1-0.3,0.1-0.5,0.1
			c-0.2,0-0.5,0-0.6-0.2c0.1-0.2,0-0.4-0.1-0.5c-0.2-0.1-0.4,0-0.5,0.1c-0.7,0.2-1.5-0.3-2.2-0.5c0,0,1.5-0.3,1.5-1.2
			c0-0.2-0.1-0.5-0.3-0.6c-0.2-0.1-0.5-0.3-0.8-0.4c-0.4-0.1-0.6,0-0.9-0.1c0-0.1-0.2-0.3-0.3-0.4c-0.2-0.1-0.3-0.2-0.5-0.2
			c-0.3-0.2-0.8-0.4-0.6-0.8c0.2,0.1,0.5,0.2,0.7,0c0.2-0.1,0.2-0.2,0.2-0.4c0-0.3-0.3-0.5-0.4-0.7c-0.1-0.2-0.2-0.3-0.3-0.5
			c-0.1-0.1-0.4-0.1-0.4-0.4c0.3,0.1,0.4-0.1,0.2-0.3c-0.2-0.2-0.5-0.3-0.6-0.6c-0.1-0.2-0.2-0.5-0.2-0.8c0-0.1,0-0.3,0.1-0.3
			c0.1,0,0.1,0.1,0.2,0.2c0.2,0.3,0.5,0.4,0.7,0.5c0.3,0.2,0.5,0.3,0.9,0.3c0.7,0.1,1.2,0,1.6-0.4c0.1-0.1,0.3-0.2,0.3-0.2
			c0.1,0.2,0.5,0.6,0.9,0.7c0.3,0.1,0.6,0.5,0.8,0.6c0.5,0.4,0.8,0.2,0.8-0.2c0-0.4-0.1-0.8-0.2-1.2c-0.1-0.6-0.2-0.8-0.3-1.4
			c0-0.4-0.2-0.7-0.4-0.9c-0.1-0.2-0.3-0.9,0.1-0.7c0.2,0.1,0.5,0.3,0.7,0.2c0.5-0.1,0.6-0.7,0.7-1.1c0.1-0.2,0.1-0.4,0.1-0.6
			c0-0.1,0.1-0.2,0.2-0.2c0,0.1,0.1,0.2,0.2,0.2c0.2,0,0.4-0.4,0.4-0.6c0-0.2,0.1-0.4,0.1-0.6c0.1-0.3,0.1-0.6,0.3-0.9
			c0.1,0.2,0.1,0.6,0.2,0.7c0.1,0.3,0.2,0.7,0.4,0.9c0.2,0.2,0.4,0.3,0.6,0.2c0.1,0.3,0.1,1.3,0.4,1.8c0.2,0.3,0.4,0.4,0.6,0.4
			c0.2,0,0.4-0.1,0.5-0.2c0.2-0.1,0.4-0.3,0.5-0.3c0.1,0,0.1,0,0.1,0.1c0,0.2-0.3,0.8-0.4,0.9c-0.1,0.3-0.3,0.6-0.3,0.9
			c-0.1,0.2-0.1,0.5-0.2,0.8c-0.1,0.3-0.1,0.6-0.1,1c0,0.3,0,0.7,0.2,0.9c0.3,0.2,0.6-0.2,0.9-0.4c0.3-0.2,0.5-0.4,0.7-0.7
			c0.2-0.2,0.5-0.8,0.7-0.7c0,0.2,0.3,0.5,0.8,0.6c0.3,0,0.5,0,0.7-0.1c0.2-0.2,0.2-0.1,0.5-0.1c0.5,0.2,1.4-0.5,1.7-0.7
			c0.1,0.1,0,0.3-0.1,0.5c-0.2,0.4-0.5,0.5-0.5,0.8c0,0.2-0.3,0.7-0.3,1c-0.1,0.2-0.4,0.3-0.5,0.4c-0.4,0.3-0.6,0.7-0.5,1.2
			c0.1,0.4,0.5,0.7,0.8,0.7c0.3,0,0.6-0.2,0.7-0.2c0.1,0-0.1,0.3-0.2,0.3C431.7,65.6,431.4,65.8,431.2,65.8z M450.7,24.3h-53.3
			l-3.4-3.6l6.8,2.3c-0.6-1.7-2.1-2.3-3.1-3.7c-0.6-0.9-0.8-1.7-0.7-2.6c0.2,0.3,0.5,0.7,1,1.1c0.5,0.3,1.2,0.6,2.1,0.8
			c1.6,0.3,2.4,0.9,3.1,1.5l-3.5-6.2l6,3.9c-0.2-1.8-1.5-2.7-2.1-4.4c-0.4-1-0.4-1.9-0.1-2.7c0.1,0.3,0.3,0.8,0.7,1.3
			c0.4,0.5,1,0.9,1.8,1.3c1.5,0.8,2.2,1.5,2.7,2.3l-1.8-7l4.8,5.2c0.2-1.8-0.8-3-0.9-4.7c-0.1-1,0.1-1.9,0.6-2.6
			c0,0.4,0.1,0.9,0.4,1.5c0.3,0.5,0.7,1.1,1.4,1.7c1.3,1.2,1.8,2,2.1,3l-0.1-7.3l3.4,6.2c0.7-1.6,0-3,0.2-4.7c0.2-1,0.6-1.8,1.3-2.4
			c-0.1,0.4-0.1,0.9,0,1.5c0.1,0.6,0.4,1.2,0.9,2c1,1.5,1.2,2.5,1.3,3.5l0,0l1.8-7.2l1.7,6.9c1-1.4,0.8-3,1.5-4.6c0.4-1,1-1.5,1.8-2
			c-0.2,0.3-0.4,0.8-0.4,1.5c0,0.6,0.1,1.3,0.4,2.2c0.6,1.6,0.6,2.6,0.4,3.6l3.5-6.4l-0.1,7.1c1.3-1.1,1.4-2.7,2.5-4.1
			c0.6-0.8,1.4-1.2,2.3-1.4c-0.2,0.3-0.6,0.7-0.7,1.3c-0.2,0.6-0.2,1.3-0.1,2.2c0.2,1.8-0.1,2.8-0.6,3.7l0,0l5-5.4l-1.8,6.8
			c1.5-0.7,2.1-2.2,3.4-3.2c0.8-0.6,1.7-1,2.5-1c-0.3,0.2-0.7,0.6-1,1.1c-0.3,0.5-0.5,1.2-0.7,2.1c-0.3,1.8-0.8,2.6-1.5,3.4l0,0
			l6.2-4L445,20c1.7-0.2,2.5-1.6,4.1-2.3c1-0.4,1.9-0.5,2.7-0.3c-0.3,0.1-0.8,0.4-1.3,0.8c-0.4,0.4-0.8,1-1.2,1.9
			c-0.7,1.6-1.4,2.3-2.3,2.9l0,0l7-2.3L450.7,24.3z M423.1,39.4c-0.1-0.2-0.5-1-2.5-1h-6v-9.7h0.4V38h5.5c0.4,0,0.8,0,1.1,0.1
			c1.1,0.2,1.6,0.6,1.8,0.9h1.4c0.2-0.3,0.7-0.7,1.7-0.9c0.3,0,0.7-0.1,1.1-0.1h5.5v-9.2h0.4v9.6h-6c-2,0-2.4,0.8-2.5,1H423.1z
			 M423.8,37.8v0.5c-0.8-1.6-4.6-1.3-7.9-1v-8.9c1.7,0,3.5-0.3,4.8-0.3c1.7,0,2.9,0.3,3.1,1.2v8c-1-1.2-4.1-1.1-7.4-0.8v0.3
			C419.7,36.5,423,36.4,423.8,37.8z M417.1,34.2c0.4,0,0.8,0,1.1,0c0.4,0,0.8,0,1.1,0v-0.2h-0.2c-0.5,0-0.6-0.1-0.6-0.4v-1.6
			c0-0.4,0.1-0.5,0.4-0.5h0.3v-0.2c-0.4,0-0.7,0-1.1,0c-0.3,0-0.7,0-1.1,0v0.2h0.3c0.4,0,0.4,0,0.4,0.5v1.6c0,0.4,0,0.4-0.6,0.4
			h-0.2V34.2z M420.9,32.3c-0.4-0.3-0.7-0.6-0.7-1.1c0-0.4,0.3-1.1,1.2-1.1c0.8,0,1.1,0.5,1.1,0.9c0,0.4-0.2,0.7-0.8,1
			c0.6,0.3,0.9,0.6,0.9,1.1c0,0.7-0.5,1.1-1.3,1.1c-0.7,0-1.2-0.5-1.2-1C420.1,32.7,420.6,32.5,420.9,32.3z M422,33.5
			c0-0.4-0.2-0.6-0.9-1c-0.3,0.2-0.5,0.5-0.5,0.8c0,0.6,0.4,0.8,0.7,0.8C421.8,34.1,422,33.8,422,33.5z M421.6,32
			c0.3-0.2,0.5-0.4,0.5-0.8c0-0.5-0.3-0.7-0.7-0.7c-0.4,0-0.6,0.3-0.6,0.7C420.8,31.4,421,31.6,421.6,32z M427.4,28.1
			c1.3,0,3,0.3,4.8,0.3v8.9c-3.2-0.3-7-0.6-7.9,1v-0.5c0.8-1.4,4.2-1.3,7.4-1v-0.3c-3.2-0.3-6.3-0.4-7.4,0.8v-8
			C424.5,28.3,425.7,28.1,427.4,28.1z M425.2,32.5h0.2l0.1-0.4h1.7l-1.6,3.4l0.3,0.1l2-4l0-0.1h-2.5L425.2,32.5z M429.3,32.3
			c-0.4-0.3-0.7-0.6-0.7-1.1c0-0.4,0.3-1.1,1.2-1.1c0.8,0,1.1,0.5,1.1,0.9c0,0.4-0.2,0.7-0.8,1c0.6,0.3,0.9,0.6,0.9,1.1
			c0,0.7-0.5,1.1-1.3,1.1c-0.7,0-1.2-0.5-1.2-1C428.5,32.7,428.9,32.5,429.3,32.3z M430.4,33.5c0-0.4-0.2-0.6-0.9-1
			c-0.3,0.2-0.5,0.5-0.5,0.8c0,0.6,0.4,0.8,0.7,0.8C430.1,34.1,430.4,33.8,430.4,33.5z M430,32c0.3-0.2,0.5-0.4,0.5-0.8
			c0-0.5-0.3-0.7-0.7-0.7c-0.4,0-0.6,0.3-0.6,0.7C429.2,31.4,429.4,31.6,430,32z M444,65.1l-20-16.3l-20,16.3
			c-10.3-12-10.2-25.8-10.2-31.5v-9.4h0l30.1,24.6l30.1-24.6h0l0,9.4C454.2,39.4,454.3,53.2,444,65.1z M406.6,56.4
			c4.2,0,7.7-3.5,7.7-7.7c0-4.3-3.4-7.8-7.7-7.8c-4.2,0-7.7,3.5-7.7,7.7C398.9,52.9,402.4,56.4,406.6,56.4z M411.6,45.4
			c0,0.2-0.1,0.6-0.2,0.7c-0.1,0-0.3,0-0.5,0.1c-0.1,0-0.1,0-0.2,0.1c-0.2,0.3-0.4,0.6-0.6,1c0,0.5,0,0.9-0.1,1.4
			c0,0.2,0,0.4-0.1,0.7c-0.2,0.2-0.3,0.4-0.5,0.5c0,0-0.1,0.1,0.1,0c0.1,0,0.4-0.2,0.5-0.2c0.3-0.1,0.5-0.4,0.9,0
			c0.2,0.2,0.5,0.4,0.8,0.6c0.1,0.1,0.2,0.1,0.4,0.2c0.1,0.1,0.2,0.4,0.3,0.5c0.2,0.4,0.2,0.6,0.2,0.7c-0.1,0.1-0.6,0.1-0.8,0
			c-0.1-0.1-0.1-0.3-0.1-0.4c-0.1-0.2-0.1-0.3-0.2-0.3c-0.2-0.1-0.3-0.2-0.4-0.3c-0.4-0.2-0.4-0.3-0.7-0.1c-0.3,0.1-0.7,0.5-1.1,0.7
			c-0.3,0.2-1.3,0-1.5-0.2c0.1,0.2,0.6,0.5,1,0.7c-0.1,0.1-0.2,0.8-0.5,1.3c0-0.1-0.1-0.2-0.2-0.2c-0.3,0-0.2,0.6-0.5,0.8
			c0-0.1-0.1-0.2-0.2-0.2c-0.2,0-0.2,0.5-0.5,0.8c0-0.1-0.1-0.2-0.2-0.2c-0.1,0-0.2,0.1-0.3,0.2c-0.3,0.4-0.5,0.6-0.8,0.9
			c-1.1-0.1-2.6-0.8-3.2-1.5c1-1.1,1.9-2.1,2.3-2.4c0.2-0.6,0.8-2,1.1-2.6c0-0.1-0.1-0.1-0.1-0.2c-0.2,0.1-0.3,0.1-0.4,0.1
			c0.1-0.2,0.1-0.4,0-0.7c-0.1,0.1-0.3,0.1-0.4,0.1c0.1-0.2,0.1-0.4,0-0.6c0,0,0,0,0,0c-0.1,0.1-0.3,0.1-0.4,0
			c0.1-0.2,0.1-0.5,0-0.7c0,0,0,0,0-0.1c-0.2,0.1-0.9,0.2-1,0.2c-0.1-0.1,0.5-0.7,1-1.1c-0.5,0.2-1,0.4-2,0.6
			c-0.5,0.1-1.6,0.3-2.4,0.2c-0.1,0-0.1-0.2,0-0.2c0.4,0,1,0,1.4-0.1c0.1,0,0.3-0.1,0-0.2c-0.3-0.1-0.9-0.2-1.2-0.3
			c-0.1,0,0-0.2,0-0.2c0.4,0,0.8,0.1,1.1,0.1c0.2,0,0.3,0,0.1-0.1c-0.1-0.1-0.3-0.2-0.6-0.4c-0.1,0-0.1-0.1,0-0.1
			c0.2,0,1,0.5,1.6,0.6c0.1,0,0.2,0.1,0.3,0c0.1,0,0.1-0.1,0.1-0.1c0-0.1-0.6-0.4-0.8-0.6c-0.1-0.1,0-0.2,0.1-0.1
			c0.3,0.1,1,0.4,1.3,0.5c0.2,0,0.3,0,0.3-0.1c0-0.2-1-0.6-1.2-0.8c-0.1,0,0-0.1,0.1-0.1c0.5,0.1,1.4,0.7,1.8,0.6c0,0,0.1,0,0.1-0.1
			c0-0.2-0.8-0.6-1-0.7c-0.1-0.1,0-0.1,0.1-0.1c0.3,0.1,0.7,0.3,1,0.4c0.1,0.1,0.2,0.1,0.4,0.1c0.2,0,0.3-0.2,0.2-0.6
			c-0.1-0.4-0.4-0.5-0.7-0.6c-0.3-0.1-0.1-0.2,0.2-0.2c0.4,0.1,0.8,0.3,0.8,0.7c0,0.1,0,0.2,0,0.2c0,0.2,0.2,0.1,0.3,0
			c0.2-0.3,0.3-0.7,0.3-0.9c-0.1-0.4-0.6-0.6-0.6-0.7c0,0,0-0.1,0.1-0.1c0.2,0,0.8,0.2,0.9,0.7c0,0.3,0,0.4,0,0.6c0,0.1,0,0.1,0.1,0
			c0.3-0.3,0.5-0.8,0.4-1.3c-0.1-0.5-0.6-0.7-0.6-0.8c0,0,0-0.1,0.1-0.1c0.2,0,0.8,0.3,0.9,0.8c0.1,0.5-0.1,1.5-1.6,2.3
			c0.6-0.1,0.8-0.1,0.9,0c0.7-0.2,1.2-0.3,1.4-0.3c0.2,0.3-0.2,0.4-0.2,0.7c0,0.2,0.5-0.1,0.4,0.2c-0.2,0.3-0.3,0.3-0.6,0.4
			c-0.1,0.1-0.6,0.4-0.8,0.6c0.7,0.5,1.5,1.3,1.5,1.3c0,0.1,0.2,0.4,0.4,0.9c0,0,0,0,0,0c0.1-0.3,0.3-0.8,0.3-1.1
			c0.1-0.2,0-0.3,0.1-0.4c0.1-0.1,0.3-0.3,0.4-0.6c0.2-0.2,0.4-0.6,0.5-0.8c0.2-0.2,0.3-0.2,0.6-0.3
			C411.2,45.5,411.5,45.4,411.6,45.4z M405.9,45.5c0,0,0.1-0.1,0.1-0.1c0.1-0.1,0.3-0.1,0.4-0.1c0.1,0.1,0,0.2-0.1,0.3
			c-0.1,0.1-0.2,0.1-0.3,0C406,45.5,406,45.5,405.9,45.5C405.9,45.5,405.9,45.5,405.9,45.5z M433.8,48.6c0-4.3,3.5-7.7,7.7-7.7
			c4.2,0,7.7,3.5,7.7,7.8c0,4.3-3.5,7.7-7.7,7.7C437.2,56.4,433.7,52.8,433.8,48.6z M445,43.4c0,0.1,0.1,0.1,0.1,0.2
			c0,0.2-0.1,0.3-0.3,0.4c-0.2,0-0.3-0.1-0.4-0.3c0-0.2,0.1-0.3,0.3-0.3l-0.4-0.6l-0.7,0.3c0.1,0.1,0.1,0.1,0.1,0.3
			c0,0.2-0.1,0.4-0.3,0.4c-0.2,0-0.4-0.1-0.4-0.3c0-0.1,0.1-0.3,0.2-0.3c-0.2-0.2-0.6-0.5-1.1-0.7c0.3,0.6,0.5,1.3,0.5,1.9
			c0.4,0,1.6,0.3,2.1,0.7c0.4-0.5,0.9-1.1,1.5-1.3C446,43.4,445.4,43.3,445,43.4z M442.8,44.9c-0.1,0-0.1,0-0.2,0c0,0-0.1,0-0.1,0
			c0,0-0.1-0.1-0.2-0.1c-0.2,0-0.3,0.1-0.3,0.2c0,0.1,0,0.1,0.1,0.2c0,0,0.1,0.1,0.2,0.1c0,0,0.1,0,0.1,0l0,0c0.1,0,0.1-0.1,0.2-0.2
			C442.6,45,442.7,45,442.8,44.9C442.8,45,442.8,45,442.8,44.9C442.9,44.9,442.8,44.9,442.8,44.9z M440.7,45c0,0.1,0,0.1,0,0.2
			c0,0,0,0,0,0c0,0.1,0,0.3,0,0.5c0,0.1,0.1,0.2,0.3,0.2c0,0,0,0.1,0,0.1c0,0,0,0,0,0c-0.1,0-0.2,0.1-0.3,0c-0.3,0-0.5-0.2-0.5-0.5
			c0-0.1,0-0.1,0.1-0.2c0,0,0,0,0-0.1c-0.1,0-0.4,0.2-0.5,0.6c0,0.4,0.2,0.6,0.5,0.6c0.2,0,0.4,0,0.6-0.1c0.4-0.2,0.8-0.2,1.1,0.1
			c-0.2,0-0.7,0-0.9,0c-0.2,0-0.3,0.5-0.1,0.5c0.2,0,0.9,0,1,0c-0.1,0.3-0.5,0.7-1,0.8c-0.3-0.1-1.1-0.1-1.5,0
			c-0.5-0.5-0.8-1.5-0.8-1.8c0-0.1,0-0.3,0.1-0.5c0.1-0.3,0.4-0.2,0.6-0.5c0.1-0.1,0-0.3,0.1-0.4c0-0.1,0.1-0.3,0-0.3
			c-0.1,0.1-0.2,0.1-0.3,0.1c-0.1,0-0.2-0.1-0.3,0c-0.2,0.1-0.2,0.3-0.3,0.4c-0.1,0.1-0.2,0-0.1-0.1c0-0.2,0.1-0.4,0.1-0.5
			c0-0.2-0.2-0.3-0.4-0.4c-0.1,0-0.2-0.1-0.3-0.2c-0.1,0-0.2,0-0.2,0.1c0,0,0.1,0.1,0.1,0.2c0,0.2-0.2,0.3-0.2,0.4
			c0,0.2,0.2,0.5,0.2,0.6c0,0.1-0.1,0.1-0.1,0.1c-0.1-0.1-0.3-0.2-0.5-0.2c-0.2,0-0.3,0.1-0.4,0.2c-0.1,0-0.3,0-0.2,0.1
			c0.1,0,0.2,0.1,0.3,0.2c0,0.1,0.1,0.2,0.1,0.2c0.1,0.1,0.5,0.1,0.6,0.1c0.1,0,0.2,0.1,0.2,0.3c0,0.1,0,0.3-0.1,0.4
			c-0.1,0.2-0.2,0.4-0.1,0.6c0.1-0.1,0.1-0.1,0.2-0.1c0.1,0,0.2,0.1,0.1,0.4c-0.1,0.2-0.1,0.4-0.1,0.6c0-0.1,0.1-0.1,0.2-0.1
			c0.1,0,0.2,0.1,0.1,0.4c-0.1,0.2-0.1,0.4,0,0.6c0-0.1,0.1-0.1,0.2-0.1c0.1,0,0.2,0.1,0.2,0.2c0.1,0.4,0.4,0.5,1,0.5
			c-0.2,0.4-1.9,0.1-2.5,0.1c-0.1,0-0.2-0.1-0.3-0.2c-0.1-0.3,0.1-0.5,0-0.8c-0.1-0.1-0.2-0.2-0.3-0.3c-0.1,0-0.2-0.2-0.3-0.1
			c0,0.1,0,0.2-0.1,0.3c-0.1,0.1-0.2,0.1-0.2,0.2c0,0.2,0.1,0.4,0.2,0.5c0,0.1,0,0.2-0.1,0.1c-0.2-0.1-0.4-0.4-0.6-0.4
			c-0.2,0-0.2,0.1-0.3,0.2c-0.1,0-0.3,0.1-0.3,0.2c0.1,0,0.2,0.1,0.2,0.2c0,0.1,0,0.2,0.1,0.3c0.2,0.2,0.6,0.1,0.8,0.1
			c0.1,0,0.1,0.1,0,0.1c-0.2,0.1-0.4,0.2-0.5,0.3c-0.1,0.1,0,0.3,0,0.4c0,0.1-0.1,0.3,0.1,0.3c0.1-0.1,0.2-0.2,0.3-0.1
			c0.1,0,0.2,0.1,0.3,0c0.2-0.1,0.2-0.2,0.3-0.4c0-0.1,0.1-0.2,0.2-0.2c0.1,0,0.1,0,0.2,0.1c0.1,0.1,0.1,0.4,0.5,0.5
			c0,0,0-0.1,0-0.1c0-0.1,0.1-0.1,0.1-0.1c0.1,0,0.2,0,0.2,0.2c0.1,0.2,0.2,0.2,0.4,0.3c0,0,0-0.1,0-0.2c0-0.1,0.1-0.1,0.1-0.1
			c0,0,0.1,0,0.2,0.1c0.1,0.2,0.2,0.3,0.4,0.3c-0.1-0.1,0-0.3,0.1-0.3c0.2,0,0.6,0.1,0.8,0.3c0,0.8,0.5,1.6,1.2,2
			c0-0.1,0-0.2,0.2-0.2c0.3,0,0.4,0.7,1.1,1c0-0.1,0-0.2,0.1-0.2c0.1,0,0.2,0,0.2,0.1c0.6,0.3,1.2,0.7,1.5,1
			c0.6-0.2,1.6-0.8,2.3-1.5c-0.4-0.1-1.5-1-1.9-1.4c-0.7-0.7-0.9-1.5-0.9-2c0-0.2,0-0.4,0.1-0.5c0.2,0.1,0.5,0.1,0.7-0.1
			c-0.3-0.2-0.3-0.7-0.2-0.9c0.2,0.1,0.5,0.1,0.7,0c-0.2-0.2-0.4-0.5-0.2-0.9c0.1,0.1,0.5,0.2,0.6,0c-0.3-0.2-0.4-0.6-0.3-1
			c0.1,0.2,0.3,0.2,0.5,0.1c-0.1-0.2-0.1-0.6-0.1-0.8c0-0.3-0.1-0.7-0.2-0.9c-0.3-0.3-1.4-0.7-2.1-0.7c-0.1,0-0.2,0-0.2,0
			c-0.2,0-0.3,0.1-0.3,0.1c-0.1,0.2-0.3,0.2-0.6,0.2C441.3,44.8,440.9,44.9,440.7,45z M441.8,50.2L441.8,50.2
			c-0.1,0.5-0.4,1.1-0.5,1.4l0.3-0.2l0.2,0.2l0.2-0.2l0.3,0.2C442,51.4,441.8,50.7,441.8,50.2z M446.9,52.4c0.1-0.1,0.1-0.2,0.1-0.2
			c-0.3-0.4-0.5-0.9-0.5-1.5c0-0.6,0.4-0.8,0.6-0.8c0.2,0,0.4,0.2,0.4,0.5c0.2-0.2,0.3-0.4,0.3-0.6c0-0.2-0.1-0.4-0.3-0.5
			c0.5-0.4,0.4-1.3-0.1-1.6c0.1,0.6-0.4,1.1-0.8,1.5c-0.6,0.5-0.6,1.2-0.5,1.8c-0.3-0.6-0.5-1.3-0.4-1.9c0-0.7,0.4-1.4,0.9-1.3
			c0.2,0,0.3,0.1,0.4,0.2c0.2-0.4,0.1-0.8-0.3-0.9c0.4-0.9-0.2-1.9-0.8-2.1c0.1,0.3,0.2,0.6,0.2,0.9c-0.1,0.9-0.8,1.6-0.9,2.9
			c-0.1,1.4,0.7,2.7,1.6,3.7C446.8,52.6,446.8,52.5,446.9,52.4z M443.5,52.2L443.5,52.2c-0.1,0.5-0.4,1.1-0.5,1.4l0.3-0.2l0.2,0.2
			l0.2-0.2l0.3,0.2C443.8,53.3,443.5,52.7,443.5,52.2z M442.2,46.4c0-0.1,0.1-0.2,0.1-0.3c0-0.1,0-0.1-0.1-0.2
			c-0.1-0.1-0.2-0.1-0.3-0.1c-0.1,0-0.3,0-0.4,0.1c0,0,0,0.1-0.1,0.1C441.7,46,442,46.1,442.2,46.4z"/>
	</g>
</g>
<g>
	<path class="st2" d="M530.9,76.5c0,0-2.2-1.2-5.4-1.2h-51v-2.4h9.3l0.1-9.6V15.6l-0.1-9.9h-9.3V3.2h30.1v2.4h-9.3l-0.1,9.9v47.6
		l0.1,9.1H507c17.4,0,22.6-9.6,26.9-23.5h2.8L530.9,76.5z"/>
	<path class="st2" d="M558.9,36.9v27.2l0.1,8.7h8.2v2.4h-27.1v-2.4h8.8l0.1-8.7V36.9l-0.1-7.4H540v-2.6c7.8,0,11.5,0,11.5,0
		c4.5,0,6.3-1.3,7.7-2.3L558.9,36.9z M553.6,15.8c3.2,0,5.9-2.7,5.9-5.9c0-3.3-2.8-6-5.9-6c-3.4,0-6,2.8-6,6
		C547.6,13.2,550.4,15.8,553.6,15.8z"/>
	<path class="st2" d="M572,75.2v-2.4h7.7l0.1-7.8V14.1l-0.1-8.5h-8.4V3.2h11.3c4.4,0,6-1.3,7.7-2.8l-0.3,13.7v18.5
		c1.9-2.9,5.3-7.8,14.7-7.8c6.8,0,12.3,2.6,15.8,9.4c2.8,5.5,3.3,11.5,3.3,16.1c0,16.6-8.3,26.2-19.7,26.2c-1.9,0-4.2-0.3-6.5-1.2
		c-4.9-2-6.5-5.1-7.8-7.2v7.1H572z M610,33.8c-0.7-1.4-2.8-5.8-8.4-5.8c-3,0-5.7,1.2-7.8,3.3c-3.8,4-4.3,10.1-4.3,19.7
		c0,6.5,0.2,11.3,1.7,14.9c1.6,4.1,5,7.3,9.9,7.3c11.4,0,11.4-16.2,11.4-23.9C612.7,44.7,612.5,38.9,610,33.8z"/>
	<path class="st2" d="M664.9,37.7c-3.1,0-5.4-2.4-5.4-5.4c0-1.7,0.8-3.3,2-4.3c-0.3-0.1-0.7-0.2-1.3-0.2c-7.1,0-12.8,12.3-12.8,23.9
		v12.4l0.1,8.6h8.3v2.6h-27.3v-2.6h8.6l0.1-8.6V29.4h-8.7v-2.6h11.3c4.4,0,6-1.3,7.7-2.8V38h0.1c2.1-5.8,6.2-13.3,14.5-13.3
		c5.4,0,8.6,3.1,8.6,7.2C670.6,35,668.1,37.7,664.9,37.7z"/>
	<path class="st2" d="M725,67.8c-1.2,3.3-3.8,8.2-11.3,8.2c-5.8,0-8.9-1.6-10.2-6.7c-3.7,5.1-9,7-15.6,7c-9.8,0-13.7-5.3-13.7-13.3
		c0-11.4,13-14.6,18.4-16.2c4-1.1,7.1-1.6,11-2.9v-5.3c0-6.9-2-11.2-9.4-11.2c-3,0-7.4,0.9-10,3.8c2.3,0.6,4.1,2.8,4.1,5.3
		c0,3-2.4,5.4-5.5,5.4c-3.2,0-5.4-2.8-5.4-5.8c0-6.8,8.7-11.1,17.7-11.1c15.3,0,18.6,6.2,18.6,14.6v25.6c0,5.6,1.3,7,3.9,7
		c2.8,0,4.6-3,5.3-5.4L725,67.8z M703.5,46.7l-7.3,2c-6,1.6-10.9,4.3-10.9,13.5c0,6.4,1.3,10.7,6.7,10.7c7.5,0,11.5-6.3,11.5-13.2
		V46.7z"/>
	<path class="st2" d="M765,37.7c-3.1,0-5.4-2.4-5.4-5.4c0-1.7,0.8-3.3,2-4.3c-0.3-0.1-0.7-0.2-1.3-0.2c-7.1,0-12.8,12.3-12.8,23.9
		v12.4l0.1,8.6h8.3v2.6h-27.3v-2.6h8.6l0.1-8.6V29.4h-8.7v-2.6h11.3c4.4,0,6-1.3,7.7-2.8V38h0.1c2.1-5.8,6.2-13.3,14.5-13.3
		c5.4,0,8.6,3.1,8.6,7.2C770.7,35,768.2,37.7,765,37.7z"/>
	<path class="st2" d="M794.2,36.9v27.2l0.1,8.7h8.2v2.4h-27.1v-2.4h8.8l0.1-8.7V36.9l-0.1-7.4h-8.9v-2.6c7.8,0,11.5,0,11.5,0
		c4.5,0,6.3-1.3,7.7-2.3L794.2,36.9z M788.9,15.8c3.2,0,5.9-2.7,5.9-5.9c0-3.3-2.8-6-5.9-6c-3.4,0-6,2.8-6,6
		C782.9,13.2,785.6,15.8,788.9,15.8z"/>
	<path class="st2" d="M850.7,62c-4.1,10.6-11.9,14.3-21.5,14.3c-15.6,0-23.3-11.1-23.3-25.7c0-14.1,8.2-25.8,23.4-25.8
		c13.9,0,21.3,9.2,21.3,22.6h-33.3v0.8c0,15.1,1.9,25,14.8,25c8.7,0,13.4-5.3,16.2-12L850.7,62z M817.3,44.5h21.6c0-0.6,0-3.1,0-3.8
		c-0.2-6.9-2-13.5-10.4-13.5c-7.9,0-10.6,7.2-11.1,14.7C817.3,42.7,817.3,43.8,817.3,44.5z"/>
	<path class="st2" d="M892.2,39.9h-2.4c-1.9-6.7-6.4-12.4-14.5-12.4c-5.1,0-8,3-8,6.9c0,12.4,27.6,7.3,27.6,26.6
		c0,9.6-7.7,15.2-17.9,15.2c-6.3,0-9.8-2.1-12.6-2.1c-1.4,0-2.8,0.5-3.9,1.7L857.3,58h2.4c2.1,9.3,7.9,15.6,17.6,15.6
		c5.2,0,9.4-2.8,9.4-8.5c0-12.8-27.1-9-27.1-26.7c0-8.7,6.7-13.5,15.5-13.5c5.2,0,7.2,1.4,10.6,1.4c1.5,0,2.8-0.6,3.7-1.6
		L892.2,39.9z"/>
</g>
</svg>
